<svg xmlns="http://www.w3.org/2000/svg" viewBox="0 0 512 512" role="img" aria-label="Youth">
  <circle cx="256" cy="256" r="142" fill="#fff3d7"/>
  <g fill="none" stroke="#b17700" stroke-width="16" stroke-linecap="round" stroke-linejoin="round">
    <path d="M175 242a51 51 0 0 0 102 0v-38a51 51 0 0 0-102 0z"/>
    <path d="M155 357v-32c0-36 30-65 67-65h8c37 0 67 29 67 65v32"/>
    <path d="M227 294l28 23 28-23"/>
    <path d="M302 251a43 43 0 0 1 86 0v31"/>
    <path d="M318 274c8 14 22 23 38 23 17 0 32-10 39-25"/>
    <path d="M299 357v-30c0-28 23-51 51-51h9c28 0 51 23 51 51v30"/>
    <path d="M164 219h-45M306 219h-43"/>
  </g>
</svg>
